<mxfile host="65bd71144e" pages="4">
    <diagram id="5_BCksHGUc6veGD5Rrwg" name="Presentation">
        <mxGraphModel dx="2391" dy="618" grid="1" gridSize="10" guides="1" tooltips="1" connect="1" arrows="1" fold="1" page="1" pageScale="1" pageWidth="827" pageHeight="1169" math="0" shadow="0">
            <root>
                <mxCell id="-pB6dK3asgWXY20V-I0a-0"/>
                <mxCell id="-pB6dK3asgWXY20V-I0a-1" parent="-pB6dK3asgWXY20V-I0a-0"/>
                <mxCell id="ndE7727TP9noJaug6J7S-0" value="&lt;div style=&quot;text-align: justify&quot;&gt;&lt;b style=&quot;font-size: 24px&quot;&gt;Formal Language&lt;/b&gt;&lt;/div&gt;&lt;div style=&quot;text-align: justify&quot;&gt;&lt;br&gt;&lt;/div&gt;&lt;div style=&quot;text-align: justify&quot;&gt;Ce langage permet potentiellement de tout faire. Son principal objectif est de fournir une syntaxe formelle générale pour faire des mathématiques, créer des programmes, communiquer avec ou entre ordinateurs, créer des scripts... potentiellement, tout ce qu'un langage formel peut faire.&lt;/div&gt;&lt;div style=&quot;text-align: justify&quot;&gt;&lt;br&gt;&lt;/div&gt;&lt;div style=&quot;text-align: justify&quot;&gt;&lt;span&gt;Les assertions ont presque tout le temps une valeur &quot;renvoyée&quot;, sinon alors elles valent &quot;rien&quot;.&lt;/span&gt;&lt;/div&gt;&lt;div style=&quot;text-align: justify&quot;&gt;&lt;span&gt;Un objet renvoyé est par défaut passé par référence, mais on peut aussi en faire une copie. Il est aussi possible de passer par variable ; dans ce cas une modification de la variable plus tard entraînera&amp;nbsp;un&amp;nbsp;&lt;/span&gt;&lt;span&gt;recalcule afin que la relation soit toujours vérifiée.&lt;/span&gt;&lt;/div&gt;&lt;div style=&quot;text-align: justify&quot;&gt;&lt;span&gt;&lt;br&gt;&lt;/span&gt;&lt;/div&gt;&lt;div style=&quot;text-align: justify&quot;&gt;&lt;span&gt;Ainsi, un texte écrit en Formal Language est une suite d'assertions.&lt;/span&gt;&lt;/div&gt;" style="shape=note;whiteSpace=wrap;html=1;backgroundOutline=1;darkOpacity=0.05;fillColor=#fff2cc;strokeColor=#d6b656;align=left;verticalAlign=top;fontColor=#000000;" parent="-pB6dK3asgWXY20V-I0a-1" vertex="1">
                    <mxGeometry x="-738" y="60" width="650" height="340" as="geometry"/>
                </mxCell>
            </root>
        </mxGraphModel>
    </diagram>
    <diagram id="95ChfJcYz4LJRr9AhdbQ" name="Formal Language">
        <mxGraphModel dx="1564" dy="618" grid="1" gridSize="10" guides="1" tooltips="1" connect="1" arrows="1" fold="1" page="1" pageScale="1" pageWidth="827" pageHeight="1169" math="0" shadow="0">
            <root>
                <mxCell id="v-T4cHczStaTHuqniMII-0"/>
                <mxCell id="v-T4cHczStaTHuqniMII-1" parent="v-T4cHczStaTHuqniMII-0"/>
                <mxCell id="v-T4cHczStaTHuqniMII-3" style="edgeStyle=none;rounded=0;orthogonalLoop=1;jettySize=auto;html=1;fontColor=#000000;" parent="v-T4cHczStaTHuqniMII-1" source="v-T4cHczStaTHuqniMII-16" target="v-T4cHczStaTHuqniMII-45" edge="1">
                    <mxGeometry relative="1" as="geometry">
                        <mxPoint x="840.3539086147412" y="750.7619663317469" as="sourcePoint"/>
                    </mxGeometry>
                </mxCell>
                <mxCell id="v-T4cHczStaTHuqniMII-15" style="edgeStyle=none;rounded=0;orthogonalLoop=1;jettySize=auto;html=1;fontColor=#000000;" parent="v-T4cHczStaTHuqniMII-1" source="v-T4cHczStaTHuqniMII-16" target="v-T4cHczStaTHuqniMII-69" edge="1">
                    <mxGeometry relative="1" as="geometry"/>
                </mxCell>
                <mxCell id="w9mhdXTxHowHy9Unrd7N-1" style="edgeStyle=none;html=1;" parent="v-T4cHczStaTHuqniMII-1" source="v-T4cHczStaTHuqniMII-16" target="w9mhdXTxHowHy9Unrd7N-0" edge="1">
                    <mxGeometry relative="1" as="geometry"/>
                </mxCell>
                <mxCell id="51Cya2AuSMGHJLqJgxWQ-7" style="edgeStyle=none;html=1;" parent="v-T4cHczStaTHuqniMII-1" source="v-T4cHczStaTHuqniMII-16" target="51Cya2AuSMGHJLqJgxWQ-0" edge="1">
                    <mxGeometry relative="1" as="geometry"/>
                </mxCell>
                <mxCell id="v-T4cHczStaTHuqniMII-16" value="Expression" style="ellipse;whiteSpace=wrap;html=1;fillColor=#f8cecc;strokeColor=#b85450;fontColor=#000000;" parent="v-T4cHczStaTHuqniMII-1" vertex="1">
                    <mxGeometry x="764" y="490" width="140" height="70" as="geometry"/>
                </mxCell>
                <mxCell id="v-T4cHczStaTHuqniMII-43" style="edgeStyle=none;rounded=0;orthogonalLoop=1;jettySize=auto;html=1;fontColor=#000000;" parent="v-T4cHczStaTHuqniMII-1" source="v-T4cHczStaTHuqniMII-45" target="v-T4cHczStaTHuqniMII-55" edge="1">
                    <mxGeometry relative="1" as="geometry"/>
                </mxCell>
                <mxCell id="v-T4cHczStaTHuqniMII-44" style="edgeStyle=none;rounded=0;orthogonalLoop=1;jettySize=auto;html=1;fontColor=#000000;" parent="v-T4cHczStaTHuqniMII-1" source="v-T4cHczStaTHuqniMII-45" target="2HfrvBEe2_fYgpj9fwrZ-0" edge="1">
                    <mxGeometry relative="1" as="geometry"/>
                </mxCell>
                <mxCell id="GKoyHZJA9tY0vmX-Lvy--2" style="edgeStyle=none;rounded=0;orthogonalLoop=1;jettySize=auto;html=1;fontColor=#000000;" parent="v-T4cHczStaTHuqniMII-1" source="v-T4cHczStaTHuqniMII-45" target="GKoyHZJA9tY0vmX-Lvy--1" edge="1">
                    <mxGeometry relative="1" as="geometry"/>
                </mxCell>
                <mxCell id="v-T4cHczStaTHuqniMII-45" value="Définition d'une fonction" style="ellipse;whiteSpace=wrap;html=1;fillColor=#fff2cc;strokeColor=#d6b656;fontColor=#000000;" parent="v-T4cHczStaTHuqniMII-1" vertex="1">
                    <mxGeometry x="920" y="590" width="140" height="70" as="geometry"/>
                </mxCell>
                <mxCell id="v-T4cHczStaTHuqniMII-49" style="edgeStyle=none;rounded=0;orthogonalLoop=1;jettySize=auto;html=1;strokeWidth=1;fillColor=#e1d5e7;strokeColor=#000000;fontColor=#000000;" parent="v-T4cHczStaTHuqniMII-1" source="v-T4cHczStaTHuqniMII-16" target="v-T4cHczStaTHuqniMII-60" edge="1">
                    <mxGeometry relative="1" as="geometry"/>
                </mxCell>
                <mxCell id="v-T4cHczStaTHuqniMII-52" style="edgeStyle=none;rounded=0;orthogonalLoop=1;jettySize=auto;html=1;fontColor=#000000;" parent="v-T4cHczStaTHuqniMII-1" source="v-T4cHczStaTHuqniMII-16" target="v-T4cHczStaTHuqniMII-85" edge="1">
                    <mxGeometry relative="1" as="geometry"/>
                </mxCell>
                <mxCell id="v-T4cHczStaTHuqniMII-55" value="Objet" style="ellipse;whiteSpace=wrap;html=1;fillColor=#fad9d5;strokeColor=#ae4132;fontColor=#000000;" parent="v-T4cHczStaTHuqniMII-1" vertex="1">
                    <mxGeometry x="920" y="750" width="140" height="70" as="geometry"/>
                </mxCell>
                <mxCell id="v-T4cHczStaTHuqniMII-56" value="Booléen" style="ellipse;whiteSpace=wrap;html=1;fillColor=#fad9d5;strokeColor=#ae4132;fontColor=#000000;" parent="v-T4cHczStaTHuqniMII-1" vertex="1">
                    <mxGeometry x="1130" y="820" width="140" height="70" as="geometry"/>
                </mxCell>
                <mxCell id="v-T4cHczStaTHuqniMII-57" style="edgeStyle=none;rounded=0;orthogonalLoop=1;jettySize=auto;html=1;fontColor=#000000;" parent="v-T4cHczStaTHuqniMII-1" source="v-T4cHczStaTHuqniMII-60" target="v-T4cHczStaTHuqniMII-61" edge="1">
                    <mxGeometry relative="1" as="geometry"/>
                </mxCell>
                <mxCell id="v-T4cHczStaTHuqniMII-58" style="edgeStyle=none;rounded=0;orthogonalLoop=1;jettySize=auto;html=1;fontColor=#000000;" parent="v-T4cHczStaTHuqniMII-1" source="v-T4cHczStaTHuqniMII-60" target="v-T4cHczStaTHuqniMII-62" edge="1">
                    <mxGeometry relative="1" as="geometry"/>
                </mxCell>
                <mxCell id="v-T4cHczStaTHuqniMII-59" style="edgeStyle=none;rounded=0;orthogonalLoop=1;jettySize=auto;html=1;strokeWidth=1;fillColor=#e1d5e7;strokeColor=#9673a6;fontColor=#000000;" parent="v-T4cHczStaTHuqniMII-1" source="v-T4cHczStaTHuqniMII-60" target="v-T4cHczStaTHuqniMII-16" edge="1">
                    <mxGeometry relative="1" as="geometry"/>
                </mxCell>
                <mxCell id="v-T4cHczStaTHuqniMII-60" value="Appel d'une fonction" style="ellipse;whiteSpace=wrap;html=1;fillColor=#fff2cc;strokeColor=#d6b656;fontColor=#000000;" parent="v-T4cHczStaTHuqniMII-1" vertex="1">
                    <mxGeometry x="940" y="400" width="140" height="70" as="geometry"/>
                </mxCell>
                <mxCell id="v-T4cHczStaTHuqniMII-61" value="Fonction" style="ellipse;whiteSpace=wrap;html=1;fillColor=#fad9d5;strokeColor=#ae4132;fontColor=#000000;" parent="v-T4cHczStaTHuqniMII-1" vertex="1">
                    <mxGeometry x="1080" y="260" width="140" height="70" as="geometry"/>
                </mxCell>
                <mxCell id="v-T4cHczStaTHuqniMII-62" value="Argument" style="ellipse;whiteSpace=wrap;html=1;fillColor=#fad9d5;strokeColor=#ae4132;fontColor=#000000;" parent="v-T4cHczStaTHuqniMII-1" vertex="1">
                    <mxGeometry x="1170" y="380" width="140" height="70" as="geometry"/>
                </mxCell>
                <mxCell id="v-T4cHczStaTHuqniMII-68" style="edgeStyle=none;rounded=0;orthogonalLoop=1;jettySize=auto;html=1;fillColor=#e1d5e7;strokeColor=#9673a6;fontColor=#000000;" parent="v-T4cHczStaTHuqniMII-1" source="v-T4cHczStaTHuqniMII-69" target="v-T4cHczStaTHuqniMII-16" edge="1">
                    <mxGeometry relative="1" as="geometry"/>
                </mxCell>
                <mxCell id="51Cya2AuSMGHJLqJgxWQ-2" style="edgeStyle=none;html=1;" parent="v-T4cHczStaTHuqniMII-1" source="v-T4cHczStaTHuqniMII-69" target="51Cya2AuSMGHJLqJgxWQ-1" edge="1">
                    <mxGeometry relative="1" as="geometry"/>
                </mxCell>
                <mxCell id="v-T4cHczStaTHuqniMII-69" value="Symbole" style="ellipse;whiteSpace=wrap;html=1;fillColor=#fff2cc;strokeColor=#d6b656;fontColor=#000000;" parent="v-T4cHczStaTHuqniMII-1" vertex="1">
                    <mxGeometry x="740" y="315" width="140" height="70" as="geometry"/>
                </mxCell>
                <mxCell id="v-T4cHczStaTHuqniMII-84" style="rounded=0;orthogonalLoop=1;jettySize=auto;html=1;fontColor=#000000;" parent="v-T4cHczStaTHuqniMII-1" source="v-T4cHczStaTHuqniMII-85" target="v-T4cHczStaTHuqniMII-86" edge="1">
                    <mxGeometry relative="1" as="geometry"/>
                </mxCell>
                <mxCell id="v-T4cHczStaTHuqniMII-85" value="Tuple" style="ellipse;whiteSpace=wrap;html=1;fillColor=#fff2cc;strokeColor=#d6b656;fontColor=#000000;" parent="v-T4cHczStaTHuqniMII-1" vertex="1">
                    <mxGeometry x="730" y="655" width="140" height="70" as="geometry"/>
                </mxCell>
                <mxCell id="v-T4cHczStaTHuqniMII-86" value="Objet[]" style="ellipse;whiteSpace=wrap;html=1;fillColor=#fad9d5;strokeColor=#ae4132;fontColor=#000000;" parent="v-T4cHczStaTHuqniMII-1" vertex="1">
                    <mxGeometry x="700" y="780" width="140" height="70" as="geometry"/>
                </mxCell>
                <mxCell id="GKoyHZJA9tY0vmX-Lvy--1" value="Nouveau système de variables" style="ellipse;whiteSpace=wrap;html=1;fillColor=#f8cecc;strokeColor=#b85450;fontColor=#000000;" parent="v-T4cHczStaTHuqniMII-1" vertex="1">
                    <mxGeometry x="1160" y="570" width="140" height="70" as="geometry"/>
                </mxCell>
                <mxCell id="2HfrvBEe2_fYgpj9fwrZ-1" style="rounded=0;orthogonalLoop=1;jettySize=auto;html=1;fontColor=#000000;" parent="v-T4cHczStaTHuqniMII-1" source="2HfrvBEe2_fYgpj9fwrZ-0" target="v-T4cHczStaTHuqniMII-56" edge="1">
                    <mxGeometry relative="1" as="geometry"/>
                </mxCell>
                <mxCell id="2HfrvBEe2_fYgpj9fwrZ-0" value="Filtre&lt;br&gt;(tel que ...)" style="ellipse;whiteSpace=wrap;html=1;fillColor=#d5e8d4;strokeColor=#82b366;fontColor=#000000;" parent="v-T4cHczStaTHuqniMII-1" vertex="1">
                    <mxGeometry x="1070" y="700" width="140" height="70" as="geometry"/>
                </mxCell>
                <mxCell id="2HfrvBEe2_fYgpj9fwrZ-8" style="edgeStyle=none;rounded=0;orthogonalLoop=1;jettySize=auto;html=1;strokeWidth=1;fillColor=#e1d5e7;strokeColor=#9673a6;fontColor=#000000;" parent="v-T4cHczStaTHuqniMII-1" source="v-T4cHczStaTHuqniMII-86" target="v-T4cHczStaTHuqniMII-85" edge="1">
                    <mxGeometry relative="1" as="geometry">
                        <mxPoint x="839.3235212608492" y="905.1013606233225" as="sourcePoint"/>
                        <mxPoint x="848.1868164101243" y="854.8791015392521" as="targetPoint"/>
                    </mxGeometry>
                </mxCell>
                <mxCell id="oxjJWwKK_3WnqKUsLEjZ-2" style="rounded=0;orthogonalLoop=1;jettySize=auto;html=1;fontColor=#000000;" parent="v-T4cHczStaTHuqniMII-1" edge="1">
                    <mxGeometry relative="1" as="geometry">
                        <mxPoint x="948.8394330238089" y="321.34689808020926" as="sourcePoint"/>
                    </mxGeometry>
                </mxCell>
                <mxCell id="KJzNALGtp4CXgoKIgsMS-3" style="edgeStyle=none;rounded=0;orthogonalLoop=1;jettySize=auto;html=1;fontColor=#000000;" parent="v-T4cHczStaTHuqniMII-1" edge="1">
                    <mxGeometry relative="1" as="geometry">
                        <mxPoint x="909.587152362546" y="301.20433714386104" as="sourcePoint"/>
                    </mxGeometry>
                </mxCell>
                <mxCell id="51Cya2AuSMGHJLqJgxWQ-4" style="edgeStyle=none;html=1;" parent="v-T4cHczStaTHuqniMII-1" source="w9mhdXTxHowHy9Unrd7N-0" target="51Cya2AuSMGHJLqJgxWQ-3" edge="1">
                    <mxGeometry relative="1" as="geometry"/>
                </mxCell>
                <mxCell id="51Cya2AuSMGHJLqJgxWQ-6" style="edgeStyle=none;html=1;" parent="v-T4cHczStaTHuqniMII-1" source="w9mhdXTxHowHy9Unrd7N-0" target="51Cya2AuSMGHJLqJgxWQ-5" edge="1">
                    <mxGeometry relative="1" as="geometry"/>
                </mxCell>
                <mxCell id="w9mhdXTxHowHy9Unrd7N-0" value="Propriété" style="ellipse;whiteSpace=wrap;html=1;fillColor=#fff2cc;strokeColor=#d6b656;fontColor=#000000;" parent="v-T4cHczStaTHuqniMII-1" vertex="1">
                    <mxGeometry x="550" y="410" width="140" height="70" as="geometry"/>
                </mxCell>
                <mxCell id="51Cya2AuSMGHJLqJgxWQ-9" style="edgeStyle=none;html=1;" parent="v-T4cHczStaTHuqniMII-1" source="51Cya2AuSMGHJLqJgxWQ-0" target="51Cya2AuSMGHJLqJgxWQ-8" edge="1">
                    <mxGeometry relative="1" as="geometry"/>
                </mxCell>
                <mxCell id="51Cya2AuSMGHJLqJgxWQ-0" value="Définition en compréhension" style="ellipse;whiteSpace=wrap;html=1;fillColor=#fff2cc;strokeColor=#d6b656;fontColor=#000000;" parent="v-T4cHczStaTHuqniMII-1" vertex="1">
                    <mxGeometry x="560" y="570" width="140" height="70" as="geometry"/>
                </mxCell>
                <mxCell id="51Cya2AuSMGHJLqJgxWQ-1" value="Nom" style="ellipse;whiteSpace=wrap;html=1;fillColor=#fad9d5;strokeColor=#ae4132;fontColor=#000000;" parent="v-T4cHczStaTHuqniMII-1" vertex="1">
                    <mxGeometry x="724" y="170" width="140" height="70" as="geometry"/>
                </mxCell>
                <mxCell id="51Cya2AuSMGHJLqJgxWQ-3" value="Objet" style="ellipse;whiteSpace=wrap;html=1;fillColor=#d5e8d4;strokeColor=#82b366;fontColor=#000000;" parent="v-T4cHczStaTHuqniMII-1" vertex="1">
                    <mxGeometry x="410" y="260" width="140" height="70" as="geometry"/>
                </mxCell>
                <mxCell id="51Cya2AuSMGHJLqJgxWQ-5" value="Nom" style="ellipse;whiteSpace=wrap;html=1;fillColor=#fad9d5;strokeColor=#ae4132;fontColor=#000000;" parent="v-T4cHczStaTHuqniMII-1" vertex="1">
                    <mxGeometry x="330" y="370" width="140" height="70" as="geometry"/>
                </mxCell>
                <mxCell id="51Cya2AuSMGHJLqJgxWQ-8" value="Objet[]" style="ellipse;whiteSpace=wrap;html=1;fillColor=#fad9d5;strokeColor=#ae4132;fontColor=#000000;" parent="v-T4cHczStaTHuqniMII-1" vertex="1">
                    <mxGeometry x="390" y="680" width="140" height="70" as="geometry"/>
                </mxCell>
            </root>
        </mxGraphModel>
    </diagram>
    <diagram id="7qtP2vkIdBDaocniMC-Y" name="Librairy">
        <mxGraphModel dx="2391" dy="1787" grid="1" gridSize="10" guides="1" tooltips="1" connect="1" arrows="1" fold="1" page="1" pageScale="1" pageWidth="827" pageHeight="1169" math="0" shadow="0">
            <root>
                <mxCell id="p-0mZmFyRT7mjJ0cYZxc-0"/>
                <mxCell id="p-0mZmFyRT7mjJ0cYZxc-1" parent="p-0mZmFyRT7mjJ0cYZxc-0"/>
                <mxCell id="ZOXpO539yJgb8DoSsCvR-1" style="rounded=0;orthogonalLoop=1;jettySize=auto;html=1;" parent="p-0mZmFyRT7mjJ0cYZxc-1" source="zrVHpP5jcfzV_NljjicC-0" target="ZOXpO539yJgb8DoSsCvR-0" edge="1">
                    <mxGeometry relative="1" as="geometry"/>
                </mxCell>
                <mxCell id="l7gowYDj9T-lpiOYeptB-1" style="edgeStyle=none;rounded=0;orthogonalLoop=1;jettySize=auto;html=1;fontColor=#000000;" parent="p-0mZmFyRT7mjJ0cYZxc-1" source="zrVHpP5jcfzV_NljjicC-0" target="ZOXpO539yJgb8DoSsCvR-64" edge="1">
                    <mxGeometry relative="1" as="geometry"/>
                </mxCell>
                <mxCell id="qv-xUUT-WQsFvDN21ISH-1" style="edgeStyle=none;html=1;" parent="p-0mZmFyRT7mjJ0cYZxc-1" source="zrVHpP5jcfzV_NljjicC-0" target="qv-xUUT-WQsFvDN21ISH-0" edge="1">
                    <mxGeometry relative="1" as="geometry"/>
                </mxCell>
                <mxCell id="qv-xUUT-WQsFvDN21ISH-3" style="edgeStyle=none;html=1;" parent="p-0mZmFyRT7mjJ0cYZxc-1" source="zrVHpP5jcfzV_NljjicC-0" target="qv-xUUT-WQsFvDN21ISH-2" edge="1">
                    <mxGeometry relative="1" as="geometry"/>
                </mxCell>
                <mxCell id="qv-xUUT-WQsFvDN21ISH-5" style="edgeStyle=none;html=1;" parent="p-0mZmFyRT7mjJ0cYZxc-1" source="ZOXpO539yJgb8DoSsCvR-12" target="qv-xUUT-WQsFvDN21ISH-7" edge="1">
                    <mxGeometry relative="1" as="geometry">
                        <mxPoint x="140.024504799876" y="43.007351439962804" as="targetPoint"/>
                    </mxGeometry>
                </mxCell>
                <mxCell id="qv-xUUT-WQsFvDN21ISH-16" style="edgeStyle=none;html=1;" parent="p-0mZmFyRT7mjJ0cYZxc-1" source="zrVHpP5jcfzV_NljjicC-0" target="qv-xUUT-WQsFvDN21ISH-15" edge="1">
                    <mxGeometry relative="1" as="geometry"/>
                </mxCell>
                <mxCell id="qv-xUUT-WQsFvDN21ISH-18" style="edgeStyle=none;html=1;" parent="p-0mZmFyRT7mjJ0cYZxc-1" source="zrVHpP5jcfzV_NljjicC-0" target="qv-xUUT-WQsFvDN21ISH-17" edge="1">
                    <mxGeometry relative="1" as="geometry"/>
                </mxCell>
                <mxCell id="qv-xUUT-WQsFvDN21ISH-20" style="edgeStyle=none;html=1;" parent="p-0mZmFyRT7mjJ0cYZxc-1" source="zrVHpP5jcfzV_NljjicC-0" target="qv-xUUT-WQsFvDN21ISH-19" edge="1">
                    <mxGeometry relative="1" as="geometry"/>
                </mxCell>
                <mxCell id="qv-xUUT-WQsFvDN21ISH-22" style="edgeStyle=none;html=1;" parent="p-0mZmFyRT7mjJ0cYZxc-1" source="zrVHpP5jcfzV_NljjicC-0" target="qv-xUUT-WQsFvDN21ISH-21" edge="1">
                    <mxGeometry relative="1" as="geometry"/>
                </mxCell>
                <mxCell id="zrVHpP5jcfzV_NljjicC-0" value="Commun" style="ellipse;whiteSpace=wrap;html=1;fillColor=#f8cecc;strokeColor=#b85450;fontColor=#000000;" parent="p-0mZmFyRT7mjJ0cYZxc-1" vertex="1">
                    <mxGeometry x="310" y="80" width="140" height="70" as="geometry"/>
                </mxCell>
                <mxCell id="ZOXpO539yJgb8DoSsCvR-0" value="Séparateur ;" style="ellipse;whiteSpace=wrap;html=1;fillColor=#fff2cc;strokeColor=#d6b656;fontColor=#000000;" parent="p-0mZmFyRT7mjJ0cYZxc-1" vertex="1">
                    <mxGeometry x="-10" y="150" width="140" height="70" as="geometry"/>
                </mxCell>
                <mxCell id="ZOXpO539yJgb8DoSsCvR-5" style="edgeStyle=none;rounded=0;orthogonalLoop=1;jettySize=auto;html=1;fontColor=#000000;" parent="p-0mZmFyRT7mjJ0cYZxc-1" source="zrVHpP5jcfzV_NljjicC-0" target="ZOXpO539yJgb8DoSsCvR-46" edge="1">
                    <mxGeometry relative="1" as="geometry"/>
                </mxCell>
                <mxCell id="ZOXpO539yJgb8DoSsCvR-13" style="edgeStyle=none;rounded=0;orthogonalLoop=1;jettySize=auto;html=1;fontColor=#000000;" parent="p-0mZmFyRT7mjJ0cYZxc-1" source="ZOXpO539yJgb8DoSsCvR-2" target="ZOXpO539yJgb8DoSsCvR-12" edge="1">
                    <mxGeometry relative="1" as="geometry"/>
                </mxCell>
                <mxCell id="ZOXpO539yJgb8DoSsCvR-56" style="edgeStyle=none;rounded=0;orthogonalLoop=1;jettySize=auto;html=1;fontColor=#000000;" parent="p-0mZmFyRT7mjJ0cYZxc-1" source="l7gowYDj9T-lpiOYeptB-10" target="ZOXpO539yJgb8DoSsCvR-55" edge="1">
                    <mxGeometry relative="1" as="geometry"/>
                </mxCell>
                <mxCell id="ZOXpO539yJgb8DoSsCvR-60" style="edgeStyle=none;rounded=0;orthogonalLoop=1;jettySize=auto;html=1;fontColor=#000000;" parent="p-0mZmFyRT7mjJ0cYZxc-1" source="ZOXpO539yJgb8DoSsCvR-2" target="l7gowYDj9T-lpiOYeptB-10" edge="1">
                    <mxGeometry relative="1" as="geometry"/>
                </mxCell>
                <mxCell id="ZOXpO539yJgb8DoSsCvR-62" style="edgeStyle=none;rounded=0;orthogonalLoop=1;jettySize=auto;html=1;fontColor=#000000;" parent="p-0mZmFyRT7mjJ0cYZxc-1" source="ZOXpO539yJgb8DoSsCvR-2" target="ZOXpO539yJgb8DoSsCvR-61" edge="1">
                    <mxGeometry relative="1" as="geometry"/>
                </mxCell>
                <mxCell id="l7gowYDj9T-lpiOYeptB-18" style="edgeStyle=none;rounded=0;orthogonalLoop=1;jettySize=auto;html=1;fontColor=#000000;" parent="p-0mZmFyRT7mjJ0cYZxc-1" source="ZOXpO539yJgb8DoSsCvR-2" target="l7gowYDj9T-lpiOYeptB-17" edge="1">
                    <mxGeometry relative="1" as="geometry"/>
                </mxCell>
                <mxCell id="ZOXpO539yJgb8DoSsCvR-2" value="Programmation" style="ellipse;whiteSpace=wrap;html=1;fillColor=#f8cecc;strokeColor=#b85450;fontColor=#000000;" parent="p-0mZmFyRT7mjJ0cYZxc-1" vertex="1">
                    <mxGeometry x="1600" y="160" width="140" height="70" as="geometry"/>
                </mxCell>
                <mxCell id="ZOXpO539yJgb8DoSsCvR-19" style="edgeStyle=none;rounded=0;orthogonalLoop=1;jettySize=auto;html=1;fontColor=#000000;" parent="p-0mZmFyRT7mjJ0cYZxc-1" source="ZOXpO539yJgb8DoSsCvR-12" target="ZOXpO539yJgb8DoSsCvR-27" edge="1">
                    <mxGeometry relative="1" as="geometry">
                        <mxPoint x="1289.4974746830585" y="320.25126265847075" as="targetPoint"/>
                    </mxGeometry>
                </mxCell>
                <mxCell id="ZOXpO539yJgb8DoSsCvR-45" style="edgeStyle=none;rounded=0;orthogonalLoop=1;jettySize=auto;html=1;fontColor=#000000;" parent="p-0mZmFyRT7mjJ0cYZxc-1" source="ZOXpO539yJgb8DoSsCvR-12" target="ZOXpO539yJgb8DoSsCvR-37" edge="1">
                    <mxGeometry relative="1" as="geometry"/>
                </mxCell>
                <mxCell id="qv-xUUT-WQsFvDN21ISH-34" style="edgeStyle=none;html=1;" parent="p-0mZmFyRT7mjJ0cYZxc-1" source="ZOXpO539yJgb8DoSsCvR-12" target="qv-xUUT-WQsFvDN21ISH-26" edge="1">
                    <mxGeometry relative="1" as="geometry"/>
                </mxCell>
                <mxCell id="ZOXpO539yJgb8DoSsCvR-12" value="Mathématiques" style="ellipse;whiteSpace=wrap;html=1;fillColor=#b1ddf0;strokeColor=#10739e;fontColor=#000000;" parent="p-0mZmFyRT7mjJ0cYZxc-1" vertex="1">
                    <mxGeometry x="1130" y="200" width="140" height="70" as="geometry"/>
                </mxCell>
                <mxCell id="ZOXpO539yJgb8DoSsCvR-27" value="Types" style="swimlane;fontStyle=0;childLayout=stackLayout;horizontal=1;startSize=26;fillColor=#fff2cc;horizontalStack=0;resizeParent=1;resizeParentMax=0;resizeLast=0;collapsible=1;marginBottom=0;strokeColor=#d6b656;fontColor=#000000;" parent="p-0mZmFyRT7mjJ0cYZxc-1" vertex="1">
                    <mxGeometry x="920" y="20" width="140" height="130" as="geometry"/>
                </mxCell>
                <mxCell id="ZOXpO539yJgb8DoSsCvR-28" value="Entier int" style="text;strokeColor=#d6b656;fillColor=#fff2cc;align=left;verticalAlign=top;spacingLeft=4;spacingRight=4;overflow=hidden;rotatable=0;points=[[0,0.5],[1,0.5]];portConstraint=eastwest;fontColor=#000000;" parent="ZOXpO539yJgb8DoSsCvR-27" vertex="1">
                    <mxGeometry y="26" width="140" height="26" as="geometry"/>
                </mxCell>
                <mxCell id="ZOXpO539yJgb8DoSsCvR-29" value="Flottant float" style="text;strokeColor=#d6b656;fillColor=#fff2cc;align=left;verticalAlign=top;spacingLeft=4;spacingRight=4;overflow=hidden;rotatable=0;points=[[0,0.5],[1,0.5]];portConstraint=eastwest;fontColor=#000000;" parent="ZOXpO539yJgb8DoSsCvR-27" vertex="1">
                    <mxGeometry y="52" width="140" height="26" as="geometry"/>
                </mxCell>
                <mxCell id="qv-xUUT-WQsFvDN21ISH-24" value="Grand entier Long" style="text;strokeColor=#d6b656;fillColor=#fff2cc;align=left;verticalAlign=top;spacingLeft=4;spacingRight=4;overflow=hidden;rotatable=0;points=[[0,0.5],[1,0.5]];portConstraint=eastwest;fontColor=#000000;" parent="ZOXpO539yJgb8DoSsCvR-27" vertex="1">
                    <mxGeometry y="78" width="140" height="26" as="geometry"/>
                </mxCell>
                <mxCell id="qv-xUUT-WQsFvDN21ISH-25" value="Rationnel Rational" style="text;strokeColor=#d6b656;fillColor=#fff2cc;align=left;verticalAlign=top;spacingLeft=4;spacingRight=4;overflow=hidden;rotatable=0;points=[[0,0.5],[1,0.5]];portConstraint=eastwest;fontColor=#000000;" parent="ZOXpO539yJgb8DoSsCvR-27" vertex="1">
                    <mxGeometry y="104" width="140" height="26" as="geometry"/>
                </mxCell>
                <mxCell id="ZOXpO539yJgb8DoSsCvR-37" value="Opérateurs" style="swimlane;fontStyle=0;childLayout=stackLayout;horizontal=1;startSize=26;fillColor=#fff2cc;horizontalStack=0;resizeParent=1;resizeParentMax=0;resizeLast=0;collapsible=1;marginBottom=0;strokeColor=#d6b656;fontColor=#000000;" parent="p-0mZmFyRT7mjJ0cYZxc-1" vertex="1">
                    <mxGeometry x="870" y="191" width="140" height="208" as="geometry"/>
                </mxCell>
                <mxCell id="ZOXpO539yJgb8DoSsCvR-38" value="Addition +" style="text;strokeColor=#d6b656;fillColor=#fff2cc;align=left;verticalAlign=top;spacingLeft=4;spacingRight=4;overflow=hidden;rotatable=0;points=[[0,0.5],[1,0.5]];portConstraint=eastwest;fontColor=#000000;" parent="ZOXpO539yJgb8DoSsCvR-37" vertex="1">
                    <mxGeometry y="26" width="140" height="26" as="geometry"/>
                </mxCell>
                <mxCell id="ZOXpO539yJgb8DoSsCvR-39" value="Soustraction -" style="text;strokeColor=#d6b656;fillColor=#fff2cc;align=left;verticalAlign=top;spacingLeft=4;spacingRight=4;overflow=hidden;rotatable=0;points=[[0,0.5],[1,0.5]];portConstraint=eastwest;fontColor=#000000;" parent="ZOXpO539yJgb8DoSsCvR-37" vertex="1">
                    <mxGeometry y="52" width="140" height="26" as="geometry"/>
                </mxCell>
                <mxCell id="ZOXpO539yJgb8DoSsCvR-40" value="Opposition -" style="text;strokeColor=#d6b656;fillColor=#fff2cc;align=left;verticalAlign=top;spacingLeft=4;spacingRight=4;overflow=hidden;rotatable=0;points=[[0,0.5],[1,0.5]];portConstraint=eastwest;fontColor=#000000;" parent="ZOXpO539yJgb8DoSsCvR-37" vertex="1">
                    <mxGeometry y="78" width="140" height="26" as="geometry"/>
                </mxCell>
                <mxCell id="ZOXpO539yJgb8DoSsCvR-41" value="Multiplication *" style="text;strokeColor=#d6b656;fillColor=#fff2cc;align=left;verticalAlign=top;spacingLeft=4;spacingRight=4;overflow=hidden;rotatable=0;points=[[0,0.5],[1,0.5]];portConstraint=eastwest;fontColor=#000000;" parent="ZOXpO539yJgb8DoSsCvR-37" vertex="1">
                    <mxGeometry y="104" width="140" height="26" as="geometry"/>
                </mxCell>
                <mxCell id="ZOXpO539yJgb8DoSsCvR-42" value="Division entière /" style="text;strokeColor=#d6b656;fillColor=#fff2cc;align=left;verticalAlign=top;spacingLeft=4;spacingRight=4;overflow=hidden;rotatable=0;points=[[0,0.5],[1,0.5]];portConstraint=eastwest;fontColor=#000000;" parent="ZOXpO539yJgb8DoSsCvR-37" vertex="1">
                    <mxGeometry y="130" width="140" height="26" as="geometry"/>
                </mxCell>
                <mxCell id="ZOXpO539yJgb8DoSsCvR-44" value="Modulo %" style="text;strokeColor=#d6b656;fillColor=#fff2cc;align=left;verticalAlign=top;spacingLeft=4;spacingRight=4;overflow=hidden;rotatable=0;points=[[0,0.5],[1,0.5]];portConstraint=eastwest;fontColor=#000000;" parent="ZOXpO539yJgb8DoSsCvR-37" vertex="1">
                    <mxGeometry y="156" width="140" height="26" as="geometry"/>
                </mxCell>
                <mxCell id="ZOXpO539yJgb8DoSsCvR-43" value="Division réelle /" style="text;strokeColor=#d6b656;fillColor=#fff2cc;align=left;verticalAlign=top;spacingLeft=4;spacingRight=4;overflow=hidden;rotatable=0;points=[[0,0.5],[1,0.5]];portConstraint=eastwest;fontColor=#000000;" parent="ZOXpO539yJgb8DoSsCvR-37" vertex="1">
                    <mxGeometry y="182" width="140" height="26" as="geometry"/>
                </mxCell>
                <mxCell id="ZOXpO539yJgb8DoSsCvR-46" value="Opérateurs logiques" style="swimlane;fontStyle=0;childLayout=stackLayout;horizontal=1;startSize=26;fillColor=#fff2cc;horizontalStack=0;resizeParent=1;resizeParentMax=0;resizeLast=0;collapsible=1;marginBottom=0;strokeColor=#d6b656;fontColor=#000000;" parent="p-0mZmFyRT7mjJ0cYZxc-1" vertex="1">
                    <mxGeometry x="590" y="190" width="140" height="104" as="geometry"/>
                </mxCell>
                <mxCell id="ZOXpO539yJgb8DoSsCvR-47" value="Non !" style="text;strokeColor=#d6b656;fillColor=#fff2cc;align=left;verticalAlign=top;spacingLeft=4;spacingRight=4;overflow=hidden;rotatable=0;points=[[0,0.5],[1,0.5]];portConstraint=eastwest;fontColor=#000000;" parent="ZOXpO539yJgb8DoSsCvR-46" vertex="1">
                    <mxGeometry y="26" width="140" height="26" as="geometry"/>
                </mxCell>
                <mxCell id="ZOXpO539yJgb8DoSsCvR-48" value="Et &amp;" style="text;strokeColor=#d6b656;fillColor=#fff2cc;align=left;verticalAlign=top;spacingLeft=4;spacingRight=4;overflow=hidden;rotatable=0;points=[[0,0.5],[1,0.5]];portConstraint=eastwest;fontColor=#000000;" parent="ZOXpO539yJgb8DoSsCvR-46" vertex="1">
                    <mxGeometry y="52" width="140" height="26" as="geometry"/>
                </mxCell>
                <mxCell id="ZOXpO539yJgb8DoSsCvR-49" value="Ou |" style="text;strokeColor=#d6b656;fillColor=#fff2cc;align=left;verticalAlign=top;spacingLeft=4;spacingRight=4;overflow=hidden;rotatable=0;points=[[0,0.5],[1,0.5]];portConstraint=eastwest;fontColor=#000000;" parent="ZOXpO539yJgb8DoSsCvR-46" vertex="1">
                    <mxGeometry y="78" width="140" height="26" as="geometry"/>
                </mxCell>
                <mxCell id="ZOXpO539yJgb8DoSsCvR-55" value="Boucle foreach" style="ellipse;whiteSpace=wrap;html=1;fillColor=#fff2cc;strokeColor=#d6b656;fontColor=#000000;" parent="p-0mZmFyRT7mjJ0cYZxc-1" vertex="1">
                    <mxGeometry x="1610" y="585" width="140" height="70" as="geometry"/>
                </mxCell>
                <mxCell id="ZOXpO539yJgb8DoSsCvR-57" value="Itérables" style="swimlane;fontStyle=0;childLayout=stackLayout;horizontal=1;startSize=26;fillColor=#fff2cc;horizontalStack=0;resizeParent=1;resizeParentMax=0;resizeLast=0;collapsible=1;marginBottom=0;strokeColor=#d6b656;fontColor=#000000;" parent="p-0mZmFyRT7mjJ0cYZxc-1" vertex="1">
                    <mxGeometry x="1340" y="490" width="140" height="104" as="geometry"/>
                </mxCell>
                <mxCell id="ZOXpO539yJgb8DoSsCvR-58" value="List" style="text;strokeColor=#d6b656;fillColor=#fff2cc;align=left;verticalAlign=top;spacingLeft=4;spacingRight=4;overflow=hidden;rotatable=0;points=[[0,0.5],[1,0.5]];portConstraint=eastwest;fontColor=#000000;" parent="ZOXpO539yJgb8DoSsCvR-57" vertex="1">
                    <mxGeometry y="26" width="140" height="26" as="geometry"/>
                </mxCell>
                <mxCell id="ZOXpO539yJgb8DoSsCvR-59" value="Set" style="text;strokeColor=#d6b656;fillColor=#fff2cc;align=left;verticalAlign=top;spacingLeft=4;spacingRight=4;overflow=hidden;rotatable=0;points=[[0,0.5],[1,0.5]];portConstraint=eastwest;fontColor=#000000;" parent="ZOXpO539yJgb8DoSsCvR-57" vertex="1">
                    <mxGeometry y="52" width="140" height="26" as="geometry"/>
                </mxCell>
                <mxCell id="l7gowYDj9T-lpiOYeptB-9" value="Dictionnaire" style="text;strokeColor=#d6b656;fillColor=#fff2cc;align=left;verticalAlign=top;spacingLeft=4;spacingRight=4;overflow=hidden;rotatable=0;points=[[0,0.5],[1,0.5]];portConstraint=eastwest;fontColor=#000000;" parent="ZOXpO539yJgb8DoSsCvR-57" vertex="1">
                    <mxGeometry y="78" width="140" height="26" as="geometry"/>
                </mxCell>
                <mxCell id="l7gowYDj9T-lpiOYeptB-3" style="edgeStyle=none;rounded=0;orthogonalLoop=1;jettySize=auto;html=1;fontColor=#000000;" parent="p-0mZmFyRT7mjJ0cYZxc-1" source="ZOXpO539yJgb8DoSsCvR-61" target="l7gowYDj9T-lpiOYeptB-2" edge="1">
                    <mxGeometry relative="1" as="geometry"/>
                </mxCell>
                <mxCell id="l7gowYDj9T-lpiOYeptB-8" style="edgeStyle=none;rounded=0;orthogonalLoop=1;jettySize=auto;html=1;fontColor=#000000;" parent="p-0mZmFyRT7mjJ0cYZxc-1" source="ZOXpO539yJgb8DoSsCvR-61" target="l7gowYDj9T-lpiOYeptB-5" edge="1">
                    <mxGeometry relative="1" as="geometry"/>
                </mxCell>
                <mxCell id="qv-xUUT-WQsFvDN21ISH-38" style="edgeStyle=none;html=1;" parent="p-0mZmFyRT7mjJ0cYZxc-1" source="ZOXpO539yJgb8DoSsCvR-61" target="qv-xUUT-WQsFvDN21ISH-37" edge="1">
                    <mxGeometry relative="1" as="geometry"/>
                </mxCell>
                <mxCell id="qv-xUUT-WQsFvDN21ISH-40" style="edgeStyle=none;html=1;" parent="p-0mZmFyRT7mjJ0cYZxc-1" source="ZOXpO539yJgb8DoSsCvR-61" target="qv-xUUT-WQsFvDN21ISH-39" edge="1">
                    <mxGeometry relative="1" as="geometry"/>
                </mxCell>
                <mxCell id="ZOXpO539yJgb8DoSsCvR-61" value="Pointeurs (manuel)" style="ellipse;whiteSpace=wrap;html=1;fillColor=#b1ddf0;strokeColor=#10739e;fontColor=#000000;" parent="p-0mZmFyRT7mjJ0cYZxc-1" vertex="1">
                    <mxGeometry x="2070" width="140" height="70" as="geometry"/>
                </mxCell>
                <mxCell id="ZOXpO539yJgb8DoSsCvR-64" value="Copie $" style="ellipse;whiteSpace=wrap;html=1;fillColor=#fff2cc;strokeColor=#d6b656;fontColor=#000000;" parent="p-0mZmFyRT7mjJ0cYZxc-1" vertex="1">
                    <mxGeometry x="70" y="224" width="140" height="70" as="geometry"/>
                </mxCell>
                <mxCell id="l7gowYDj9T-lpiOYeptB-2" value="Pointeur" style="ellipse;whiteSpace=wrap;html=1;fillColor=#fff2cc;strokeColor=#d6b656;fontColor=#000000;" parent="p-0mZmFyRT7mjJ0cYZxc-1" vertex="1">
                    <mxGeometry x="2150" y="140" width="140" height="70" as="geometry"/>
                </mxCell>
                <mxCell id="l7gowYDj9T-lpiOYeptB-5" value="Opérations mémoire" style="swimlane;fontStyle=0;childLayout=stackLayout;horizontal=1;startSize=26;fillColor=#fff2cc;horizontalStack=0;resizeParent=1;resizeParentMax=0;resizeLast=0;collapsible=1;marginBottom=0;strokeColor=#d6b656;fontColor=#000000;" parent="p-0mZmFyRT7mjJ0cYZxc-1" vertex="1">
                    <mxGeometry x="2310" y="-4" width="140" height="104" as="geometry"/>
                </mxCell>
                <mxCell id="l7gowYDj9T-lpiOYeptB-6" value="Allouer" style="text;strokeColor=#d6b656;fillColor=#fff2cc;align=left;verticalAlign=top;spacingLeft=4;spacingRight=4;overflow=hidden;rotatable=0;points=[[0,0.5],[1,0.5]];portConstraint=eastwest;fontColor=#000000;" parent="l7gowYDj9T-lpiOYeptB-5" vertex="1">
                    <mxGeometry y="26" width="140" height="26" as="geometry"/>
                </mxCell>
                <mxCell id="l7gowYDj9T-lpiOYeptB-7" value="Désallouer" style="text;strokeColor=#d6b656;fillColor=#fff2cc;align=left;verticalAlign=top;spacingLeft=4;spacingRight=4;overflow=hidden;rotatable=0;points=[[0,0.5],[1,0.5]];portConstraint=eastwest;fontColor=#000000;" parent="l7gowYDj9T-lpiOYeptB-5" vertex="1">
                    <mxGeometry y="52" width="140" height="26" as="geometry"/>
                </mxCell>
                <mxCell id="qv-xUUT-WQsFvDN21ISH-36" value="Modifier taille" style="text;strokeColor=#d6b656;fillColor=#fff2cc;align=left;verticalAlign=top;spacingLeft=4;spacingRight=4;overflow=hidden;rotatable=0;points=[[0,0.5],[1,0.5]];portConstraint=eastwest;fontColor=#000000;" parent="l7gowYDj9T-lpiOYeptB-5" vertex="1">
                    <mxGeometry y="78" width="140" height="26" as="geometry"/>
                </mxCell>
                <mxCell id="l7gowYDj9T-lpiOYeptB-11" style="edgeStyle=none;rounded=0;orthogonalLoop=1;jettySize=auto;html=1;fontColor=#000000;" parent="p-0mZmFyRT7mjJ0cYZxc-1" source="l7gowYDj9T-lpiOYeptB-10" target="ZOXpO539yJgb8DoSsCvR-57" edge="1">
                    <mxGeometry relative="1" as="geometry"/>
                </mxCell>
                <mxCell id="l7gowYDj9T-lpiOYeptB-16" style="edgeStyle=none;rounded=0;orthogonalLoop=1;jettySize=auto;html=1;fontColor=#000000;" parent="p-0mZmFyRT7mjJ0cYZxc-1" source="l7gowYDj9T-lpiOYeptB-10" target="l7gowYDj9T-lpiOYeptB-12" edge="1">
                    <mxGeometry relative="1" as="geometry"/>
                </mxCell>
                <mxCell id="l7gowYDj9T-lpiOYeptB-10" value="Structures de données" style="ellipse;whiteSpace=wrap;html=1;fillColor=#b1ddf0;strokeColor=#10739e;fontColor=#000000;" parent="p-0mZmFyRT7mjJ0cYZxc-1" vertex="1">
                    <mxGeometry x="1640" y="390" width="140" height="70" as="geometry"/>
                </mxCell>
                <mxCell id="l7gowYDj9T-lpiOYeptB-12" value="Algorithmes" style="swimlane;fontStyle=0;childLayout=stackLayout;horizontal=1;startSize=26;fillColor=#fff2cc;horizontalStack=0;resizeParent=1;resizeParentMax=0;resizeLast=0;collapsible=1;marginBottom=0;strokeColor=#d6b656;fontColor=#000000;" parent="p-0mZmFyRT7mjJ0cYZxc-1" vertex="1">
                    <mxGeometry x="1830" y="546" width="140" height="78" as="geometry"/>
                </mxCell>
                <mxCell id="l7gowYDj9T-lpiOYeptB-13" value="Recherche" style="text;strokeColor=#d6b656;fillColor=#fff2cc;align=left;verticalAlign=top;spacingLeft=4;spacingRight=4;overflow=hidden;rotatable=0;points=[[0,0.5],[1,0.5]];portConstraint=eastwest;fontColor=#000000;" parent="l7gowYDj9T-lpiOYeptB-12" vertex="1">
                    <mxGeometry y="26" width="140" height="26" as="geometry"/>
                </mxCell>
                <mxCell id="l7gowYDj9T-lpiOYeptB-14" value="Tri" style="text;strokeColor=#d6b656;fillColor=#fff2cc;align=left;verticalAlign=top;spacingLeft=4;spacingRight=4;overflow=hidden;rotatable=0;points=[[0,0.5],[1,0.5]];portConstraint=eastwest;fontColor=#000000;" parent="l7gowYDj9T-lpiOYeptB-12" vertex="1">
                    <mxGeometry y="52" width="140" height="26" as="geometry"/>
                </mxCell>
                <mxCell id="l7gowYDj9T-lpiOYeptB-17" value="Console" style="ellipse;whiteSpace=wrap;html=1;fillColor=#b1ddf0;strokeColor=#10739e;fontColor=#000000;" parent="p-0mZmFyRT7mjJ0cYZxc-1" vertex="1">
                    <mxGeometry x="1480" y="-30" width="140" height="70" as="geometry"/>
                </mxCell>
                <mxCell id="qv-xUUT-WQsFvDN21ISH-0" value="Assignation :=" style="ellipse;whiteSpace=wrap;html=1;fillColor=#fff2cc;strokeColor=#d6b656;fontColor=#000000;" parent="p-0mZmFyRT7mjJ0cYZxc-1" vertex="1">
                    <mxGeometry x="220" y="260" width="140" height="70" as="geometry"/>
                </mxCell>
                <mxCell id="qv-xUUT-WQsFvDN21ISH-2" value="Définition fonction :" style="ellipse;whiteSpace=wrap;html=1;fillColor=#fff2cc;strokeColor=#d6b656;fontColor=#000000;" parent="p-0mZmFyRT7mjJ0cYZxc-1" vertex="1">
                    <mxGeometry x="390" y="250" width="140" height="70" as="geometry"/>
                </mxCell>
                <mxCell id="qv-xUUT-WQsFvDN21ISH-7" value="Opérateurs comparaison" style="swimlane;fontStyle=0;childLayout=stackLayout;horizontal=1;startSize=26;fillColor=#fff2cc;horizontalStack=0;resizeParent=1;resizeParentMax=0;resizeLast=0;collapsible=1;marginBottom=0;strokeColor=#d6b656;fontColor=#000000;" parent="p-0mZmFyRT7mjJ0cYZxc-1" vertex="1">
                    <mxGeometry x="1160" y="-80" width="140" height="130" as="geometry"/>
                </mxCell>
                <mxCell id="qv-xUUT-WQsFvDN21ISH-9" value="Inférieur ou égal &lt;=" style="text;strokeColor=#d6b656;fillColor=#fff2cc;align=left;verticalAlign=top;spacingLeft=4;spacingRight=4;overflow=hidden;rotatable=0;points=[[0,0.5],[1,0.5]];portConstraint=eastwest;fontColor=#000000;" parent="qv-xUUT-WQsFvDN21ISH-7" vertex="1">
                    <mxGeometry y="26" width="140" height="26" as="geometry"/>
                </mxCell>
                <mxCell id="qv-xUUT-WQsFvDN21ISH-10" value="Supérieur ou égal &gt;=" style="text;strokeColor=#d6b656;fillColor=#fff2cc;align=left;verticalAlign=top;spacingLeft=4;spacingRight=4;overflow=hidden;rotatable=0;points=[[0,0.5],[1,0.5]];portConstraint=eastwest;fontColor=#000000;" parent="qv-xUUT-WQsFvDN21ISH-7" vertex="1">
                    <mxGeometry y="52" width="140" height="26" as="geometry"/>
                </mxCell>
                <mxCell id="qv-xUUT-WQsFvDN21ISH-12" value="Inférieur strict &lt;" style="text;strokeColor=#d6b656;fillColor=#fff2cc;align=left;verticalAlign=top;spacingLeft=4;spacingRight=4;overflow=hidden;rotatable=0;points=[[0,0.5],[1,0.5]];portConstraint=eastwest;fontColor=#000000;" parent="qv-xUUT-WQsFvDN21ISH-7" vertex="1">
                    <mxGeometry y="78" width="140" height="26" as="geometry"/>
                </mxCell>
                <mxCell id="qv-xUUT-WQsFvDN21ISH-13" value="Supérieur strict &gt;" style="text;strokeColor=#d6b656;fillColor=#fff2cc;align=left;verticalAlign=top;spacingLeft=4;spacingRight=4;overflow=hidden;rotatable=0;points=[[0,0.5],[1,0.5]];portConstraint=eastwest;fontColor=#000000;" parent="qv-xUUT-WQsFvDN21ISH-7" vertex="1">
                    <mxGeometry y="104" width="140" height="26" as="geometry"/>
                </mxCell>
                <mxCell id="qv-xUUT-WQsFvDN21ISH-15" value="Egalité =" style="ellipse;whiteSpace=wrap;html=1;fillColor=#fff2cc;strokeColor=#d6b656;fontColor=#000000;" parent="p-0mZmFyRT7mjJ0cYZxc-1" vertex="1">
                    <mxGeometry x="80" y="-24" width="140" height="70" as="geometry"/>
                </mxCell>
                <mxCell id="qv-xUUT-WQsFvDN21ISH-17" value="Non égalité !=" style="ellipse;whiteSpace=wrap;html=1;fillColor=#fff2cc;strokeColor=#d6b656;fontColor=#000000;" parent="p-0mZmFyRT7mjJ0cYZxc-1" vertex="1">
                    <mxGeometry x="240" y="-70" width="140" height="70" as="geometry"/>
                </mxCell>
                <mxCell id="qv-xUUT-WQsFvDN21ISH-19" value="Egalité pointeur ===" style="ellipse;whiteSpace=wrap;html=1;fillColor=#fff2cc;strokeColor=#d6b656;fontColor=#000000;" parent="p-0mZmFyRT7mjJ0cYZxc-1" vertex="1">
                    <mxGeometry x="414" y="-66" width="140" height="70" as="geometry"/>
                </mxCell>
                <mxCell id="qv-xUUT-WQsFvDN21ISH-21" value="Non égalité pointeur !==" style="ellipse;whiteSpace=wrap;html=1;fillColor=#fff2cc;strokeColor=#d6b656;fontColor=#000000;" parent="p-0mZmFyRT7mjJ0cYZxc-1" vertex="1">
                    <mxGeometry x="510" y="4" width="140" height="70" as="geometry"/>
                </mxCell>
                <mxCell id="qv-xUUT-WQsFvDN21ISH-26" value="Fonctions de base" style="swimlane;fontStyle=0;childLayout=stackLayout;horizontal=1;startSize=26;fillColor=#fff2cc;horizontalStack=0;resizeParent=1;resizeParentMax=0;resizeLast=0;collapsible=1;marginBottom=0;strokeColor=#d6b656;fontColor=#000000;" parent="p-0mZmFyRT7mjJ0cYZxc-1" vertex="1">
                    <mxGeometry x="1080" y="330" width="140" height="156" as="geometry"/>
                </mxCell>
                <mxCell id="qv-xUUT-WQsFvDN21ISH-27" value="Exponentiel exp" style="text;strokeColor=#d6b656;fillColor=#fff2cc;align=left;verticalAlign=top;spacingLeft=4;spacingRight=4;overflow=hidden;rotatable=0;points=[[0,0.5],[1,0.5]];portConstraint=eastwest;fontColor=#000000;" parent="qv-xUUT-WQsFvDN21ISH-26" vertex="1">
                    <mxGeometry y="26" width="140" height="26" as="geometry"/>
                </mxCell>
                <mxCell id="qv-xUUT-WQsFvDN21ISH-28" value="Logarithme ln" style="text;strokeColor=#d6b656;fillColor=#fff2cc;align=left;verticalAlign=top;spacingLeft=4;spacingRight=4;overflow=hidden;rotatable=0;points=[[0,0.5],[1,0.5]];portConstraint=eastwest;fontColor=#000000;" parent="qv-xUUT-WQsFvDN21ISH-26" vertex="1">
                    <mxGeometry y="52" width="140" height="26" as="geometry"/>
                </mxCell>
                <mxCell id="qv-xUUT-WQsFvDN21ISH-29" value="Sinus sin" style="text;strokeColor=#d6b656;fillColor=#fff2cc;align=left;verticalAlign=top;spacingLeft=4;spacingRight=4;overflow=hidden;rotatable=0;points=[[0,0.5],[1,0.5]];portConstraint=eastwest;fontColor=#000000;" parent="qv-xUUT-WQsFvDN21ISH-26" vertex="1">
                    <mxGeometry y="78" width="140" height="26" as="geometry"/>
                </mxCell>
                <mxCell id="qv-xUUT-WQsFvDN21ISH-30" value="Cosinus cos" style="text;strokeColor=#d6b656;fillColor=#fff2cc;align=left;verticalAlign=top;spacingLeft=4;spacingRight=4;overflow=hidden;rotatable=0;points=[[0,0.5],[1,0.5]];portConstraint=eastwest;fontColor=#000000;" parent="qv-xUUT-WQsFvDN21ISH-26" vertex="1">
                    <mxGeometry y="104" width="140" height="26" as="geometry"/>
                </mxCell>
                <mxCell id="qv-xUUT-WQsFvDN21ISH-35" value="..." style="text;strokeColor=#d6b656;fillColor=#fff2cc;align=left;verticalAlign=top;spacingLeft=4;spacingRight=4;overflow=hidden;rotatable=0;points=[[0,0.5],[1,0.5]];portConstraint=eastwest;fontColor=#000000;" parent="qv-xUUT-WQsFvDN21ISH-26" vertex="1">
                    <mxGeometry y="130" width="140" height="26" as="geometry"/>
                </mxCell>
                <mxCell id="qv-xUUT-WQsFvDN21ISH-37" value="Récupérer adresse" style="ellipse;whiteSpace=wrap;html=1;fillColor=#fff2cc;strokeColor=#d6b656;fontColor=#000000;" parent="p-0mZmFyRT7mjJ0cYZxc-1" vertex="1">
                    <mxGeometry x="2160" y="-110" width="140" height="70" as="geometry"/>
                </mxCell>
                <mxCell id="qv-xUUT-WQsFvDN21ISH-39" value="Récupérer objet" style="ellipse;whiteSpace=wrap;html=1;fillColor=#fff2cc;strokeColor=#d6b656;fontColor=#000000;" parent="p-0mZmFyRT7mjJ0cYZxc-1" vertex="1">
                    <mxGeometry x="1940" y="-94" width="140" height="70" as="geometry"/>
                </mxCell>
            </root>
        </mxGraphModel>
    </diagram>
    <diagram name="Request / Response" id="FlWuthka48MUiZwYv4-S">
        <mxGraphModel dx="2391" dy="618" grid="1" gridSize="10" guides="1" tooltips="1" connect="1" arrows="1" fold="1" page="1" pageScale="1" pageWidth="827" pageHeight="1169" math="0" shadow="0">
            <root>
                <mxCell id="FoDYW3rtUhIle951Fva--0"/>
                <mxCell id="FoDYW3rtUhIle951Fva--1" parent="FoDYW3rtUhIle951Fva--0"/>
                <mxCell id="FoDYW3rtUhIle951Fva--2" value="&lt;div style=&quot;text-align: justify&quot;&gt;&lt;b style=&quot;font-size: 24px&quot;&gt;Requête &amp;amp; Response&lt;/b&gt;&lt;/div&gt;&lt;div style=&quot;text-align: justify&quot;&gt;&lt;br&gt;&lt;/div&gt;&lt;div style=&quot;text-align: justify&quot;&gt;Le client commence par appeller la fonction &lt;b&gt;Protocol.request&lt;/b&gt; à laquelle il passe la liste des protocoles qu'il veut utiliser. Le serveur répond avec &lt;b&gt;Protocol.accept&lt;/b&gt;&amp;nbsp;avec la liste des protocoles acceptés.&lt;/div&gt;" style="shape=note;whiteSpace=wrap;html=1;backgroundOutline=1;darkOpacity=0.05;fillColor=#fff2cc;strokeColor=#d6b656;align=left;verticalAlign=top;fontColor=#000000;" parent="FoDYW3rtUhIle951Fva--1" vertex="1">
                    <mxGeometry x="-760" y="40" width="570" height="210" as="geometry"/>
                </mxCell>
            </root>
        </mxGraphModel>
    </diagram>
    <diagram id="6xVNYjhvSVKtVNiQVoSr" name="Compilation">
        <mxGraphModel dx="2391" dy="618" grid="1" gridSize="10" guides="1" tooltips="1" connect="1" arrows="1" fold="1" page="1" pageScale="1" pageWidth="827" pageHeight="1169" math="0" shadow="0">
            <root>
                <mxCell id="Kdm36r-lZKiSKA6P0850-0"/>
                <mxCell id="Kdm36r-lZKiSKA6P0850-1" parent="Kdm36r-lZKiSKA6P0850-0"/>
                <mxCell id="DMPNHopfa1UGwHoZ_fDU-0" value="&lt;div style=&quot;text-align: justify&quot;&gt;&lt;b style=&quot;font-size: 24px&quot;&gt;Compilation&lt;/b&gt;&lt;/div&gt;&lt;div style=&quot;text-align: justify&quot;&gt;&lt;br&gt;&lt;/div&gt;&lt;div style=&quot;text-align: justify&quot;&gt;Le compilateur tente de créer le programme le plus optimisé possible en ne considérant que les tâches &quot;utiles&quot; et en pré-calculant le plus de choses possible. Ainsi, il va partir des instructions qui ont réellement une utilité puis remonter l'arbre afin de prendre en compte toutes les assertions préalablement nécessaire au calcul. Si un calcul peut être effectué immédiatement (i.e. ne dépendant pas de paramètre inconnu), il le sera affin d'accélérer le calcul lors de l'exécution.&lt;/div&gt;&lt;div style=&quot;text-align: justify&quot;&gt;&lt;br&gt;&lt;/div&gt;&lt;div style=&quot;text-align: justify&quot;&gt;La parallélisation est automatique. En effet tout calcul dont on a pas directement besoin du résultat dans la suite du thread est lancé dans un nouveau thread pour potentiellement être parallélisé. Il existe également une API pour lancer une fonction dans un nouveau thread.&lt;/div&gt;" style="shape=note;whiteSpace=wrap;html=1;backgroundOutline=1;darkOpacity=0.05;fillColor=#fff2cc;strokeColor=#d6b656;align=left;verticalAlign=top;fontColor=#000000;" parent="Kdm36r-lZKiSKA6P0850-1" vertex="1">
                    <mxGeometry x="-760" y="40" width="470" height="230" as="geometry"/>
                </mxCell>
            </root>
        </mxGraphModel>
    </diagram>
</mxfile>